<svg width="36" height="24" viewBox="0 0 36 24" fill="none" xmlns="http://www.w3.org/2000/svg">
<g clip-path="url(#clip0_25_20)">
<path d="M0 0H36V24H0V0Z" fill="white"/>
<path d="M0 0H36V1.84561H0V0ZM0 3.69123H36V5.53684H0V3.69123ZM0 7.38246H36V9.22807H0V7.38246ZM0 11.0737H36V12.9193H0V11.0737ZM0 14.7719H36V16.6175H0V14.7719ZM0 18.4632H36V20.3088H0V18.4632ZM0 22.1544H36V24H0V22.1544Z" fill="#D80027"/>
<path d="M0 0H18V12.9193H0V0Z" fill="#2E52B2"/>
<path d="M3.35441 9.74743L3.07371 8.84919L2.76494 9.74743H1.83862L2.5895 10.2878L2.3088 11.186L3.07371 10.6316L3.81757 11.186L3.52985 10.2878L4.29476 9.74743H3.35441ZM7.30529 9.74743L7.01757 8.84919L6.72283 9.74743H5.79652L6.5474 10.2878L6.26669 11.186L7.01757 10.6316L7.77547 11.186L7.49476 10.2878L8.24564 9.74743H7.30529ZM11.2702 9.74743L10.9684 8.84919L10.6877 9.74743H9.74038L10.5123 10.2878L10.2176 11.186L10.9684 10.6316L11.7404 11.186L11.4456 10.2878L12.1965 9.74743H11.2702ZM15.2141 9.74743L14.9334 8.84919L14.6386 9.74743H13.7053L14.4632 10.2878L14.1825 11.186L14.9334 10.6316L15.6913 11.186L15.3895 10.2878L16.1614 9.74743H15.2141ZM7.01757 5.28428L6.72283 6.18252H5.79652L6.5474 6.73691L6.26669 7.62112L7.01757 7.07375L7.77547 7.62112L7.49476 6.73691L8.24564 6.18252H7.30529L7.01757 5.28428ZM3.07371 5.28428L2.76494 6.18252H1.83862L2.5895 6.73691L2.3088 7.62112L3.07371 7.07375L3.81757 7.62112L3.52985 6.73691L4.29476 6.18252H3.35441L3.07371 5.28428ZM10.9684 5.28428L10.6877 6.18252H9.74038L10.5123 6.73691L10.2176 7.62112L10.9684 7.07375L11.7404 7.62112L11.4456 6.73691L12.1965 6.18252H11.2702L10.9684 5.28428ZM14.9334 5.28428L14.6386 6.18252H13.7053L14.4632 6.73691L14.1825 7.62112L14.9334 7.07375L15.6913 7.62112L15.3895 6.73691L16.1614 6.18252H15.2141L14.9334 5.28428ZM3.07371 1.7334L2.76494 2.61761H1.83862L2.5895 3.172L2.3088 4.06322L3.07371 3.50884L3.81757 4.06322L3.52985 3.172L4.29476 2.61761H3.35441L3.07371 1.7334ZM7.01757 1.7334L6.72283 2.61761H5.79652L6.5474 3.172L6.26669 4.06322L7.01757 3.50884L7.77547 4.06322L7.49476 3.172L8.24564 2.61761H7.30529L7.01757 1.7334ZM10.9684 1.7334L10.6877 2.61761H9.74038L10.5123 3.172L10.2176 4.06322L10.9684 3.50884L11.7404 4.06322L11.4456 3.172L12.1965 2.61761H11.2702L10.9684 1.7334ZM14.9334 1.7334L14.6386 2.61761H13.7053L14.4632 3.172L14.1825 4.06322L14.9334 3.50884L15.6913 4.06322L15.3895 3.172L16.1614 2.61761H15.2141L14.9334 1.7334Z" fill="white"/>
</g>
<defs>
<clipPath id="clip0_25_20">
<rect width="36" height="24" fill="white"/>
</clipPath>
</defs>
</svg>
