<svg width="36" height="24" viewBox="0 0 36 24" fill="none" xmlns="http://www.w3.org/2000/svg">
<g clip-path="url(#clip0_25_27)">
<path d="M0 0.000244141H36V23.9998H0V0.000244141Z" fill="#D80027"/>
<path d="M0 16.6958H36V23.9999H0V16.6958Z" fill="#01D97E"/>
<path d="M0 0.000244141H36V7.34896H0V0.000244141Z" fill="#338AF3"/>
<path d="M0 8.82739H36V15.1313H0V8.82739Z" fill="white"/>
<path d="M0 0.000244141H36V7.34896H0V0.000244141Z" fill="#338AF3"/>
<path d="M2.76057 3.68106C2.76057 2.55718 3.55046 1.61816 4.60528 1.38788C4.44004 1.35168 4.27137 1.33336 4.1022 1.33325C2.8055 1.33325 1.75439 2.38435 1.75439 3.68106C1.75439 4.97776 2.8055 6.02887 4.1022 6.02887C4.27503 6.02887 4.44321 6.00967 4.60528 5.97423C3.55046 5.74396 2.76057 4.80494 2.76057 3.68106ZM5.99283 4.74819L6.15181 5.23736H6.66614L6.25003 5.53977L6.40901 6.02887L5.99283 5.72652L5.57672 6.02887L5.7357 5.53977L5.31959 5.23736H5.83393L5.99283 4.74819ZM7.63449 4.74819L7.79339 5.23736H8.30773L7.89162 5.53977L8.0506 6.02887L7.63449 5.72652L7.21838 6.02887L7.37729 5.53977L6.96125 5.23736H7.47551L7.63449 4.74819ZM9.27607 4.74819L9.43498 5.23736H9.94932L9.53328 5.53977L9.69218 6.02887L9.27607 5.72652L8.85996 6.02887L9.01887 5.53977L8.60276 5.23736H9.1171L9.27607 4.74819ZM10.9177 4.74819L11.0767 5.23736H11.591L11.1749 5.53977L11.3338 6.02887L10.9177 5.72652L10.5016 6.02887L10.6606 5.53977L10.2444 5.23736H10.7587L10.9177 4.74819ZM12.5593 4.74819L12.7182 5.23736H13.2326L12.8164 5.53977L12.9754 6.02887L12.5593 5.72652L12.1432 6.02887L12.3021 5.53977L11.8861 5.23736H12.4003L12.5593 4.74819ZM7.63449 3.04072L7.79339 3.52982H8.30773L7.89162 3.83216L8.0506 4.32133L7.63449 4.01905L7.21838 4.32133L7.37729 3.83216L6.96125 3.52982H7.47551L7.63449 3.04072ZM9.27607 3.04072L9.43498 3.52982H9.94932L9.53328 3.83216L9.69218 4.32133L9.27607 4.01905L8.85996 4.32133L9.01887 3.83216L8.60276 3.52982H9.1171L9.27607 3.04072ZM10.9177 3.04072L11.0767 3.52982H11.591L11.1749 3.83216L11.3338 4.32133L10.9177 4.01905L10.5016 4.32133L10.6606 3.83216L10.2444 3.52982H10.7587L10.9177 3.04072ZM12.5593 3.04072L12.7182 3.52982H13.2326L12.8164 3.83216L12.9754 4.32133L12.5593 4.01905L12.1432 4.32133L12.3021 3.83216L11.8861 3.52982H12.4003L12.5593 3.04072ZM9.27607 1.33325L9.43498 1.82235H9.94932L9.53328 2.12469L9.69218 2.61386L9.27607 2.31151L8.85996 2.61386L9.01887 2.12469L8.60276 1.82235H9.1171L9.27607 1.33325ZM10.9177 1.33325L11.0767 1.82235H11.591L11.1749 2.12469L11.3338 2.61386L10.9177 2.31151L10.5016 2.61386L10.6606 2.12469L10.2444 1.82235H10.7587L10.9177 1.33325ZM12.5593 1.33325L12.7182 1.82235H13.2326L12.8164 2.12469L12.9754 2.61386L12.5593 2.31151L12.1432 2.61386L12.3021 2.12469L11.8861 1.82235H12.4003L12.5593 1.33325Z" fill="white"/>
</g>
<defs>
<clipPath id="clip0_25_27">
<rect width="36" height="24" fill="white"/>
</clipPath>
</defs>
</svg>
